<svg width="40" height="55" viewBox="0 0 40 55" fill="none" xmlns="http://www.w3.org/2000/svg">
<path d="M32.5 36.1124V53.2924C32.5 53.5136 32.4414 53.7308 32.3301 53.9219C32.2188 54.113 32.0587 54.2712 31.8663 54.3802C31.6739 54.4893 31.456 54.5453 31.2348 54.5426C31.0137 54.5399 30.7972 54.4786 30.6075 54.3649L20 47.9999L9.3925 54.3649C9.20261 54.4787 8.9859 54.54 8.76454 54.5426C8.54317 54.5452 8.3251 54.4889 8.13261 54.3796C7.94012 54.2703 7.78012 54.1118 7.66897 53.9203C7.55782 53.7288 7.49951 53.5113 7.5 53.2899V36.1149C4.26537 33.5252 1.91498 29.9946 0.773648 26.0113C-0.367686 22.0279 -0.24361 17.7884 1.12873 13.8786C2.50107 9.96883 5.05391 6.58181 8.43446 4.18563C11.815 1.78946 15.8564 0.502441 20 0.502441C24.1436 0.502441 28.185 1.78946 31.5655 4.18563C34.9461 6.58181 37.4989 9.96883 38.8713 13.8786C40.2436 17.7884 40.3677 22.0279 39.2264 26.0113C38.085 29.9946 35.7346 33.5252 32.5 36.1149V36.1124ZM20 35.4999C23.9782 35.4999 27.7936 33.9196 30.6066 31.1065C33.4197 28.2935 35 24.4782 35 20.4999C35 16.5217 33.4197 12.7064 30.6066 9.89334C27.7936 7.08029 23.9782 5.49994 20 5.49994C16.0218 5.49994 12.2064 7.08029 9.3934 9.89334C6.58035 12.7064 5 16.5217 5 20.4999C5 24.4782 6.58035 28.2935 9.3934 31.1065C12.2064 33.9196 16.0218 35.4999 20 35.4999ZM20 30.4999C17.3478 30.4999 14.8043 29.4464 12.9289 27.571C11.0536 25.6956 10 23.1521 10 20.4999C10 17.8478 11.0536 15.3042 12.9289 13.4289C14.8043 11.5535 17.3478 10.4999 20 10.4999C22.6522 10.4999 25.1957 11.5535 27.0711 13.4289C28.9464 15.3042 30 17.8478 30 20.4999C30 23.1521 28.9464 25.6956 27.0711 27.571C25.1957 29.4464 22.6522 30.4999 20 30.4999Z" fill="#2D4CC8"/>
</svg>
