<svg width="20" height="20" viewBox="0 0 20 20" fill="none" xmlns="http://www.w3.org/2000/svg">
<path d="M10.0001 1.66667C5.39592 1.66667 1.66675 5.39583 1.66675 10C1.6658 11.7494 2.21576 13.4547 3.2386 14.8739C4.26143 16.2931 5.7052 17.3542 7.36508 17.9067C7.78175 17.9792 7.93758 17.7292 7.93758 17.51C7.93758 17.3125 7.92675 16.6567 7.92675 15.9583C5.83342 16.3442 5.29175 15.4483 5.12508 14.9792C5.03092 14.7392 4.62508 14 4.27092 13.8017C3.97925 13.6458 3.56258 13.26 4.26008 13.25C4.91675 13.2392 5.38508 13.8542 5.54175 14.1042C6.29175 15.3642 7.49008 15.01 7.96842 14.7917C8.04175 14.25 8.26008 13.8858 8.50008 13.6775C6.64592 13.4692 4.70842 12.75 4.70842 9.5625C4.70842 8.65583 5.03092 7.90667 5.56258 7.3225C5.47925 7.11417 5.18758 6.26 5.64592 5.11417C5.64592 5.11417 6.34342 4.89583 7.93758 5.96917C8.61597 5.78088 9.31689 5.68612 10.0209 5.6875C10.7292 5.6875 11.4376 5.78083 12.1042 5.96833C13.6976 4.885 14.3959 5.115 14.3959 5.115C14.8542 6.26083 14.5626 7.115 14.4792 7.32333C15.0101 7.90667 15.3334 8.64583 15.3334 9.5625C15.3334 12.7608 13.3859 13.4692 11.5317 13.6775C11.8334 13.9375 12.0942 14.4375 12.0942 15.2192C12.0942 16.3333 12.0834 17.2292 12.0834 17.5108C12.0834 17.7292 12.2401 17.9892 12.6567 17.9058C14.3109 17.3473 15.7483 16.2842 16.7667 14.866C17.785 13.4478 18.3329 11.7459 18.3334 10C18.3334 5.39583 14.6042 1.66667 10.0001 1.66667Z" fill="#3B5999"/>
</svg>
