<svg width="50" height="50" viewBox="0 0 50 50" fill="none" xmlns="http://www.w3.org/2000/svg">
<path d="M10 27.5C14.1421 27.5 17.5 24.1421 17.5 20C17.5 15.8579 14.1421 12.5 10 12.5C5.85786 12.5 2.5 15.8579 2.5 20C2.5 24.1421 5.85786 27.5 10 27.5Z" fill="#2D4CC8"/>
<path d="M50 0H15V5H50V0Z" fill="#2D4CC8"/>
<path d="M50 10H25V15H50V10Z" fill="#2D4CC8"/>
<path d="M50 20H35V25H50V20Z" fill="#2D4CC8"/>
<path d="M20 40.9002L31.925 26.6001L28.075 23.4001L18.525 34.8501C17.3896 32.9983 15.6822 31.5665 13.6608 30.7712C11.6394 29.976 9.41407 29.8605 7.32126 30.4423C5.22844 31.0241 3.38197 32.2716 2.06107 33.996C0.740173 35.7204 0.0166805 37.828 0 40.0001V50.0002H20V40.9002Z" fill="#2D4CC8"/>
</svg>
