<svg width="20" height="20" viewBox="0 0 20 20" fill="none" xmlns="http://www.w3.org/2000/svg">
<path d="M5.83333 8.33334H16.6667C16.8877 8.33334 17.0996 8.42114 17.2559 8.57742C17.4122 8.7337 17.5 8.94566 17.5 9.16667V17.5C17.5 17.721 17.4122 17.933 17.2559 18.0893C17.0996 18.2455 16.8877 18.3333 16.6667 18.3333H3.33333C3.11232 18.3333 2.90036 18.2455 2.74408 18.0893C2.5878 17.933 2.5 17.721 2.5 17.5V9.16667C2.5 8.94566 2.5878 8.7337 2.74408 8.57742C2.90036 8.42114 3.11232 8.33334 3.33333 8.33334H4.16667V7.50001C4.16619 6.18559 4.60965 4.90954 5.42516 3.8787C6.24067 2.84786 7.38042 2.12266 8.65967 1.82064C9.93891 1.51863 11.2827 1.65751 12.4731 2.21477C13.6635 2.77203 14.6309 3.715 15.2183 4.89084L13.7275 5.63584C13.3079 4.79586 12.6169 4.12221 11.7665 3.72413C10.9161 3.32605 9.95622 3.22686 9.0424 3.44266C8.12858 3.65845 7.31444 4.17657 6.73196 4.91302C6.14949 5.64946 5.83283 6.56106 5.83333 7.50001V8.33334ZM8.33333 12.5V14.1667H11.6667V12.5H8.33333Z" fill="#31344B"/>
</svg>
