<svg width="54" height="54" viewBox="0 0 54 54" fill="none" xmlns="http://www.w3.org/2000/svg">
<path d="M27 19.5C25.1458 19.5 23.3332 18.9502 21.7915 17.92C20.2498 16.8899 19.0482 15.4257 18.3386 13.7127C17.6291 11.9996 17.4434 10.1146 17.8051 8.29603C18.1669 6.47746 19.0598 4.807 20.3709 3.49588C21.682 2.18476 23.3525 1.29188 25.171 0.930142C26.9896 0.568406 28.8746 0.754062 30.5877 1.46363C32.3007 2.17321 33.7649 3.37482 34.795 4.91653C35.8252 6.45824 36.375 8.2708 36.375 10.125C36.375 11.3561 36.1325 12.5752 35.6614 13.7127C35.1902 14.8501 34.4997 15.8836 33.6291 16.7541C32.7586 17.6247 31.7251 18.3152 30.5877 18.7864C29.4502 19.2575 28.2311 19.5 27 19.5ZM27 39.525C28.214 37.0023 29.9775 34.7835 32.1611 33.0315C34.3447 31.2794 36.8929 30.0386 39.6187 29.4H39.7125C38.988 26.5789 37.3457 24.0788 35.0442 22.2937C32.7426 20.5085 29.9127 19.5397 27 19.5397C24.0873 19.5397 21.2574 20.5085 18.9558 22.2937C16.6543 24.0788 15.012 26.5789 14.2875 29.4C17.0303 30.0258 19.5971 31.2609 21.7978 33.0136C23.9984 34.7663 25.7764 36.9917 27 39.525ZM46.8187 38.25C45.282 38.2496 43.747 38.3561 42.225 38.5688C34.2188 39.6563 28.0875 43.5 27.225 48.2438C27.1084 48.654 27.033 49.0748 27 49.5C27.0028 49.0529 26.9588 48.6067 26.8688 48.1688C25.9125 43.425 19.7812 39.5813 11.8687 38.4938C10.314 38.3018 8.74755 38.2203 7.18125 38.25H0.75V53.25H53.25V38.25H46.8187ZM29.025 39.6938C28.3896 40.8809 27.8986 42.1399 27.5625 43.4438C30.3937 40.1063 35.55 37.6313 41.9625 36.7688C43.5702 36.5256 45.1929 36.394 46.8187 36.375H49.5V30.75H43.9875C42.6612 30.7524 41.3398 30.9097 40.05 31.2188C37.7244 31.7879 35.5428 32.8355 33.6446 34.2947C31.7464 35.7539 30.173 37.5927 29.025 39.6938ZM12 36.7125C18.4125 37.575 23.5687 40.05 26.4187 43.3875C25.7649 40.9866 24.5982 38.756 22.9992 36.8494C21.4001 34.9428 19.4067 33.4056 17.1562 32.3438C16.1052 31.8541 15.0054 31.477 13.875 31.2188C12.6096 30.9154 11.3137 30.7581 10.0125 30.75H4.5V36.375H7.18125C8.79338 36.3756 10.4035 36.4884 12 36.7125Z" fill="#2D4CC8"/>
</svg>
